# xmcd CD database file
#
# Track frame offsets:
#	150
#	19479
#	40852
#	72134
#	104550
#	146267
#	163870
#
# Disc length: 2616 seconds
#
# Revision: 0
# Processed by: cddbd v1.5.2PL0 Copyright (c) Steve Scherf et al.
# Submitted via: CDex 1.51
#
DISCID=5e0a3607
DTITLE=Sam Rivers - Contrasts
DYEAR=1980
DGENRE=Jazz
TTITLE0=Circles
TTITLE1=Zip
TTITLE2=Solace
TTITLE3=Verve
TTITLE4=Dazzle
TTITLE5=Images
TTITLE6=Lines
EXTD=YEAR: 1980
EXTT0=
EXTT1=
EXTT2=
EXTT3=
EXTT4=
EXTT5=
EXTT6=
PLAYORDER=
